<svg width="74" height="62" viewBox="0 0 74 62" fill="none" xmlns="http://www.w3.org/2000/svg">
<path fill-rule="evenodd" clip-rule="evenodd" d="M60.1904 42.498C60.7198 42.2005 61.0483 41.6412 61.0502 41.0339L61.0874 29.5527C61.0894 28.9455 61.4177 28.3863 61.947 28.0887L68.7421 24.2679C69.8659 23.6361 71.2542 24.4482 71.2542 25.7374V46.72C71.2542 47.3292 70.9256 47.891 70.3945 48.1895L46.6686 61.5279C46.1565 61.8157 45.5315 61.8163 45.0189 61.5293L26.3357 51.0696C25.8032 50.7715 25.4734 50.2089 25.4734 49.5986V39.1874C25.4734 39.1747 25.487 39.1666 25.4981 39.1727V39.1727C25.5093 39.1788 25.5229 39.1708 25.5229 39.1581V39.1474C25.5229 39.1391 25.5274 39.1314 25.5346 39.1274L40.6791 30.6115C40.6928 30.6038 40.6873 30.583 40.6717 30.583V30.583C40.6633 30.583 40.6565 30.5762 40.6565 30.5678L40.6875 20.0248C40.6913 18.7324 39.2994 17.9165 38.1737 18.5513L26.3014 25.2459C25.7874 25.5357 25.1593 25.5357 24.6453 25.2459L12.7409 18.533C11.617 17.8993 10.227 18.7113 10.227 20.0015V39.1419C10.227 40.4295 8.84186 41.2418 7.71812 40.6132L0.864566 36.7795C0.330852 36.481 0.000661525 35.9168 0.00172867 35.3053L0.0583185 2.87596C0.0605659 1.58807 1.44766 0.778242 2.5703 1.40938L24.6472 13.8207C25.1602 14.1091 25.7865 14.1091 26.2995 13.8207L48.3714 1.4122C49.4952 0.780427 50.8834 1.59254 50.8834 2.88173V35.3187C50.8834 35.9272 50.5555 36.4885 50.0253 36.7873L38.2776 43.4085C37.1302 44.0552 37.1343 45.7088 38.2848 46.3498L45.02 50.1025C45.5321 50.3878 46.1556 50.3866 46.6666 50.0994L60.1904 42.498ZM61.3578 14.49C61.3578 15.7933 62.7735 16.6037 63.8973 15.9437L70.4221 12.1121C70.9376 11.8093 71.2542 11.2562 71.2542 10.6583V2.94504C71.2542 1.64174 69.8385 0.831362 68.7147 1.49134L62.1899 5.32301C61.6744 5.62575 61.3578 6.17887 61.3578 6.77671V14.49Z" fill="#007FFF"/>
</svg>
