<svg width="1440" height="4664" viewBox="0 0 1440 4664" fill="none" xmlns="http://www.w3.org/2000/svg">
<g clip-path="url(#clip0_519_2)">
<rect width="1440" height="4664" fill="white"/>
<path d="M895.654 173.539C917.713 179.463 925.087 207.046 908.927 223.187L792.575 339.409C776.415 355.551 748.841 348.146 742.942 326.08L700.467 167.205C694.568 145.139 714.768 124.962 736.827 130.886L895.654 173.539Z" stroke="#40364E" stroke-opacity="0.1" stroke-width="25"/>
<path d="M274.861 1423.15C296.92 1429.08 304.295 1456.66 288.134 1472.8L171.782 1589.02C155.622 1605.16 128.048 1597.76 122.149 1575.69L79.6742 1416.82C73.7749 1394.75 93.975 1374.57 116.034 1380.5L274.861 1423.15Z" stroke="#40364E" stroke-opacity="0.1" stroke-width="25"/>
<path d="M1461.16 3695.97C1480.94 3684.55 1505.66 3698.83 1505.66 3721.67L1505.66 3886.12C1505.66 3908.96 1480.94 3923.24 1461.16 3911.82L1318.74 3829.59C1298.95 3818.17 1298.95 3789.62 1318.74 3778.2L1461.16 3695.97Z" stroke="#40364E" stroke-opacity="0.1" stroke-width="25"/>
<path d="M82.9065 623.669C98.1542 621.297 110.252 636.32 104.683 650.711L64.5824 754.327C59.013 768.718 39.9533 771.683 30.275 759.664L-39.4086 673.129C-49.0869 661.11 -42.1251 643.121 -26.8773 640.749L82.9065 623.669Z" stroke="#40364E" stroke-opacity="0.1" stroke-width="25"/>
<path d="M298.98 -52.2026C311.973 -60.5273 329.106 -51.6648 329.819 -36.2501L334.952 74.7358C335.664 90.1505 319.423 100.556 305.717 93.4664L207.034 42.4185C193.328 35.3286 192.437 16.0602 205.43 7.73544L298.98 -52.2026Z" stroke="#40364E" stroke-opacity="0.1" stroke-width="25"/>
<path d="M1324.31 2639.34C1293.33 2657.23 1254.6 2634.87 1254.6 2599.09L1254.6 2341.52C1254.6 2305.74 1293.33 2283.38 1324.31 2301.27L1547.38 2430.06C1578.36 2447.95 1578.36 2492.66 1547.38 2510.55L1324.31 2639.34Z" stroke="#40364E" stroke-opacity="0.1" stroke-width="30"/>
<path d="M1333.31 1136.34C1302.33 1154.23 1263.6 1131.87 1263.6 1096.09L1263.6 838.517C1263.6 802.743 1302.33 780.384 1333.31 798.271L1556.38 927.058C1587.36 944.945 1587.36 989.663 1556.38 1007.55L1333.31 1136.34Z" stroke="#40364E" stroke-opacity="0.1" stroke-width="30"/>
<path d="M181.313 3512.34C150.331 3530.23 111.604 3507.87 111.604 3472.09L111.604 3214.52C111.604 3178.74 150.331 3156.38 181.313 3174.27L404.379 3303.06C435.36 3320.95 435.36 3365.66 404.379 3383.55L181.313 3512.34Z" stroke="#40364E" stroke-opacity="0.1" stroke-width="30"/>
<path d="M1246.68 1808.38C1239.08 1780.35 1264.67 1754.61 1292.74 1762.05L1494.83 1815.58C1522.9 1823.01 1532.4 1858.04 1511.93 1878.63L1364.52 2026.89C1344.05 2047.48 1308.96 2038.18 1301.37 2010.16L1246.68 1808.38Z" stroke="#40364E" stroke-opacity="0.1" stroke-width="30"/>
<path d="M231.679 4599.38C224.083 4571.35 249.674 4545.61 277.743 4553.05L479.835 4606.58C507.903 4614.01 517.398 4649.04 496.925 4669.63L349.521 4817.89C329.048 4838.48 293.963 4829.18 286.367 4801.16L231.679 4599.38Z" stroke="#40364E" stroke-opacity="0.1" stroke-width="30"/>
</g>
<defs>
<clipPath id="clip0_519_2">
<rect width="1440" height="4664" fill="white"/>
</clipPath>
</defs>
</svg>
