<svg width="197" height="198" viewBox="0 0 197 198" fill="none" xmlns="http://www.w3.org/2000/svg">
<path d="M90.5859 137.532L90.5859 148.219H35.25V137.532H90.5859ZM88.5469 81.3522L38.2031 148.219H30.2578V138.657L80.25 72.1412H88.5469V81.3522ZM82.7812 72.1412V82.899H30.8203V72.1412H82.7812Z" fill="black"/>
<path d="M116.836 39V147H103.758V39H116.836ZM163.312 70.9219L130.125 106.43L111.562 125.695L110.508 111.844L123.797 95.9531L147.422 70.9219H163.312ZM151.43 147L124.289 110.719L131.039 99.1172L166.758 147H151.43Z" fill="black"/>
<path d="M1 3.80005H61" stroke="black" stroke-width="6"/>
<path d="M4 60.9999L4.1138 0.999983" stroke="black" stroke-width="6"/>
<path d="M193 2L193 62" stroke="black" stroke-width="6"/>
<path d="M136 4.20001L196 4.31381" stroke="black" stroke-width="6"/>
<path d="M196 194.2L136 194.2" stroke="black" stroke-width="6"/>
<path d="M193.113 136L192.999 196" stroke="black" stroke-width="6"/>
<path d="M4 196L4 136" stroke="black" stroke-width="6"/>
<path d="M61 193.8L1.0001 193.686" stroke="black" stroke-width="6"/>
</svg>
