<?xml version="1.0" encoding="iso-8859-1"?>
<!-- Generator: Adobe Illustrator 19.0.0, SVG Export Plug-In . SVG Version: 6.00 Build 0)  -->
<svg version="1.1" id="Layer_1" xmlns="http://www.w3.org/2000/svg" xmlns:xlink="http://www.w3.org/1999/xlink" x="0px" y="0px"
	 viewBox="0 0 455 455" style="enable-background:new 0 0 455 455;" xml:space="preserve">
<path style="fill-rule:evenodd;clip-rule:evenodd;" d="M0,0v455h455V0H0z M352.751,163.259c0.123,2.773,0.186,5.561,0.186,8.36
	c0,85.403-65.002,183.876-183.873,183.876c-36.496,0-70.466-10.697-99.065-29.037c5.056,0.601,10.199,0.907,15.417,0.907
	c30.278,0,58.143-10.331,80.262-27.668c-28.28-0.519-52.148-19.204-60.373-44.88c3.948,0.757,7.997,1.163,12.161,1.163
	c5.894,0,11.604-0.794,17.027-2.268c-29.563-5.939-51.841-32.057-51.841-63.368c0-0.273,0-0.544,0.006-0.814
	c8.712,4.84,18.676,7.748,29.271,8.084c-17.342-11.589-28.748-31.371-28.748-53.79c0-11.845,3.187-22.945,8.751-32.492
	c31.873,39.101,79.493,64.828,133.203,67.526c-1.103-4.732-1.677-9.665-1.677-14.729c0-35.688,28.938-64.623,64.626-64.623
	c18.589,0,35.385,7.847,47.173,20.406c14.719-2.895,28.551-8.276,41.038-15.681c-4.824,15.092-15.071,27.754-28.415,35.754
	c13.074-1.563,25.528-5.038,37.118-10.178C376.336,142.766,365.38,154.149,352.751,163.259z"/>
<g>
</g>
<g>
</g>
<g>
</g>
<g>
</g>
<g>
</g>
<g>
</g>
<g>
</g>
<g>
</g>
<g>
</g>
<g>
</g>
<g>
</g>
<g>
</g>
<g>
</g>
<g>
</g>
<g>
</g>
</svg>
